<mxfile host="app.diagrams.net" modified="2023-12-29T10:06:54.057Z" agent="Mozilla/5.0 (Windows NT 10.0; Win64; x64) AppleWebKit/537.36 (KHTML, like Gecko) Chrome/120.0.0.0 Safari/537.36" etag="qHbtQSi5zSEnrq7oUnp-" version="22.1.15" type="github">
  <diagram name="Page-1" id="tAcfaLL3rHxrqXzCYobu">
    <mxGraphModel dx="375" dy="199" grid="1" gridSize="10" guides="1" tooltips="1" connect="1" arrows="1" fold="1" page="1" pageScale="1" pageWidth="850" pageHeight="1100" math="0" shadow="0">
      <root>
        <mxCell id="0" />
        <mxCell id="1" parent="0" />
        <mxCell id="Nh9DQebo3rbTLpFxGOrF-5" value="" style="edgeStyle=orthogonalEdgeStyle;rounded=0;orthogonalLoop=1;jettySize=auto;html=1;" parent="1" source="Nh9DQebo3rbTLpFxGOrF-1" target="Nh9DQebo3rbTLpFxGOrF-3" edge="1">
          <mxGeometry relative="1" as="geometry" />
        </mxCell>
        <mxCell id="Nh9DQebo3rbTLpFxGOrF-1" value="" style="ellipse;html=1;shape=startState;fillColor=#000000;strokeColor=#ff0000;" parent="1" vertex="1">
          <mxGeometry x="410" width="30" height="30" as="geometry" />
        </mxCell>
        <mxCell id="Nh9DQebo3rbTLpFxGOrF-8" value="" style="edgeStyle=orthogonalEdgeStyle;rounded=0;orthogonalLoop=1;jettySize=auto;html=1;" parent="1" source="Nh9DQebo3rbTLpFxGOrF-3" target="Nh9DQebo3rbTLpFxGOrF-6" edge="1">
          <mxGeometry relative="1" as="geometry" />
        </mxCell>
        <mxCell id="Nh9DQebo3rbTLpFxGOrF-3" value="Compliance Officer/System continuous monitoring" style="rounded=1;whiteSpace=wrap;html=1;arcSize=40;fontColor=#000000;fillColor=#ffffc0;strokeColor=#ff0000;" parent="1" vertex="1">
          <mxGeometry x="363" y="60" width="125" height="50" as="geometry" />
        </mxCell>
        <mxCell id="Nh9DQebo3rbTLpFxGOrF-11" value="" style="edgeStyle=orthogonalEdgeStyle;rounded=0;orthogonalLoop=1;jettySize=auto;html=1;" parent="1" source="Nh9DQebo3rbTLpFxGOrF-6" target="Nh9DQebo3rbTLpFxGOrF-9" edge="1">
          <mxGeometry relative="1" as="geometry" />
        </mxCell>
        <mxCell id="Nh9DQebo3rbTLpFxGOrF-6" value="Monitor Loan Processes" style="rounded=1;whiteSpace=wrap;html=1;arcSize=40;fontColor=#000000;fillColor=#ffffc0;strokeColor=#ff0000;" parent="1" vertex="1">
          <mxGeometry x="365" y="160" width="120" height="40" as="geometry" />
        </mxCell>
        <mxCell id="Nh9DQebo3rbTLpFxGOrF-15" value="" style="edgeStyle=orthogonalEdgeStyle;rounded=0;orthogonalLoop=1;jettySize=auto;html=1;" parent="1" source="Nh9DQebo3rbTLpFxGOrF-9" target="Nh9DQebo3rbTLpFxGOrF-12" edge="1">
          <mxGeometry relative="1" as="geometry" />
        </mxCell>
        <mxCell id="Nh9DQebo3rbTLpFxGOrF-9" value="Check against regulatory requirements" style="rounded=1;whiteSpace=wrap;html=1;arcSize=40;fontColor=#000000;fillColor=#ffffc0;strokeColor=#ff0000;" parent="1" vertex="1">
          <mxGeometry x="365" y="250" width="120" height="40" as="geometry" />
        </mxCell>
        <mxCell id="Nh9DQebo3rbTLpFxGOrF-23" value="" style="edgeStyle=orthogonalEdgeStyle;rounded=0;orthogonalLoop=1;jettySize=auto;html=1;" parent="1" source="Nh9DQebo3rbTLpFxGOrF-12" target="Nh9DQebo3rbTLpFxGOrF-21" edge="1">
          <mxGeometry relative="1" as="geometry" />
        </mxCell>
        <mxCell id="Nh9DQebo3rbTLpFxGOrF-30" value="[No]" style="edgeLabel;html=1;align=center;verticalAlign=middle;resizable=0;points=[];" parent="Nh9DQebo3rbTLpFxGOrF-23" vertex="1" connectable="0">
          <mxGeometry x="-0.0733" relative="1" as="geometry">
            <mxPoint as="offset" />
          </mxGeometry>
        </mxCell>
        <mxCell id="Nh9DQebo3rbTLpFxGOrF-24" style="edgeStyle=orthogonalEdgeStyle;rounded=0;orthogonalLoop=1;jettySize=auto;html=1;exitX=1;exitY=0.5;exitDx=0;exitDy=0;entryX=0.5;entryY=1;entryDx=0;entryDy=0;" parent="1" source="Nh9DQebo3rbTLpFxGOrF-12" target="Nh9DQebo3rbTLpFxGOrF-19" edge="1">
          <mxGeometry relative="1" as="geometry" />
        </mxCell>
        <mxCell id="Nh9DQebo3rbTLpFxGOrF-29" value="[Yes]" style="edgeLabel;html=1;align=center;verticalAlign=middle;resizable=0;points=[];" parent="Nh9DQebo3rbTLpFxGOrF-24" vertex="1" connectable="0">
          <mxGeometry x="-0.2921" y="1" relative="1" as="geometry">
            <mxPoint as="offset" />
          </mxGeometry>
        </mxCell>
        <mxCell id="Nh9DQebo3rbTLpFxGOrF-12" value="" style="rhombus;whiteSpace=wrap;html=1;fontColor=#000000;fillColor=#ffffc0;strokeColor=#ff0000;" parent="1" vertex="1">
          <mxGeometry x="385.5" y="320" width="80" height="40" as="geometry" />
        </mxCell>
        <mxCell id="Nh9DQebo3rbTLpFxGOrF-17" value="Non-compliance detected?" style="shape=note;whiteSpace=wrap;html=1;backgroundOutline=1;darkOpacity=0.05;" parent="1" vertex="1">
          <mxGeometry x="215.5" y="310" width="100" height="60" as="geometry" />
        </mxCell>
        <mxCell id="Nh9DQebo3rbTLpFxGOrF-26" value="" style="edgeStyle=orthogonalEdgeStyle;rounded=0;orthogonalLoop=1;jettySize=auto;html=1;" parent="1" source="Nh9DQebo3rbTLpFxGOrF-19" target="Nh9DQebo3rbTLpFxGOrF-9" edge="1">
          <mxGeometry relative="1" as="geometry" />
        </mxCell>
        <mxCell id="Nh9DQebo3rbTLpFxGOrF-19" value="Flag non-compliance issues" style="rounded=1;whiteSpace=wrap;html=1;arcSize=40;fontColor=#000000;fillColor=#ffffc0;strokeColor=#ff0000;" parent="1" vertex="1">
          <mxGeometry x="540" y="250" width="120" height="40" as="geometry" />
        </mxCell>
        <mxCell id="Nh9DQebo3rbTLpFxGOrF-32" value="" style="edgeStyle=orthogonalEdgeStyle;rounded=0;orthogonalLoop=1;jettySize=auto;html=1;" parent="1" source="Nh9DQebo3rbTLpFxGOrF-21" target="Nh9DQebo3rbTLpFxGOrF-31" edge="1">
          <mxGeometry relative="1" as="geometry" />
        </mxCell>
        <mxCell id="Nh9DQebo3rbTLpFxGOrF-21" value="Generate Compliance Reports" style="rounded=1;whiteSpace=wrap;html=1;arcSize=40;fontColor=#000000;fillColor=#ffffc0;strokeColor=#ff0000;" parent="1" vertex="1">
          <mxGeometry x="365" y="410" width="120" height="40" as="geometry" />
        </mxCell>
        <mxCell id="Nh9DQebo3rbTLpFxGOrF-31" value="" style="ellipse;html=1;shape=endState;fillColor=#000000;strokeColor=#ff0000;" parent="1" vertex="1">
          <mxGeometry x="410" y="490" width="30" height="30" as="geometry" />
        </mxCell>
        <mxCell id="nz6QbD0ybYtZMhl2oSt7-1" value="" style="verticalLabelPosition=bottom;shadow=0;dashed=0;align=center;html=1;verticalAlign=top;strokeWidth=1;shape=mxgraph.mockup.markup.line;strokeColor=#999999;" vertex="1" parent="1">
          <mxGeometry x="315.5" y="330" width="70" height="20" as="geometry" />
        </mxCell>
      </root>
    </mxGraphModel>
  </diagram>
</mxfile>
